<svg width="48" height="48" viewBox="0 0 48 48" fill="none" xmlns="http://www.w3.org/2000/svg">
<path d="M6 46V37.6C4.83333 37.2 3.875 36.4917 3.125 35.475C2.375 34.4583 2 33.3 2 32V12H6V4C6 3.43333 6.19167 2.95833 6.575 2.575C6.95833 2.19167 7.43333 2 8 2C8.56667 2 9.04167 2.19167 9.425 2.575C9.80833 2.95833 10 3.43333 10 4V12H14V32C14 33.3 13.625 34.4583 12.875 35.475C12.125 36.4917 11.1667 37.2 10 37.6V46H6ZM22 46V37.6C20.8333 37.2 19.875 36.4917 19.125 35.475C18.375 34.4583 18 33.3 18 32V12H22V4C22 3.43333 22.1917 2.95833 22.575 2.575C22.9583 2.19167 23.4333 2 24 2C24.5667 2 25.0417 2.19167 25.425 2.575C25.8083 2.95833 26 3.43333 26 4V12H30V32C30 33.3 29.625 34.4583 28.875 35.475C28.125 36.4917 27.1667 37.2 26 37.6V46H22ZM38 46V37.6C36.8333 37.2 35.875 36.4917 35.125 35.475C34.375 34.4583 34 33.3 34 32V12H38V4C38 3.43333 38.1917 2.95833 38.575 2.575C38.9583 2.19167 39.4333 2 40 2C40.5667 2 41.0417 2.19167 41.425 2.575C41.8083 2.95833 42 3.43333 42 4V12H46V32C46 33.3 45.625 34.4583 44.875 35.475C44.125 36.4917 43.1667 37.2 42 37.6V46H38ZM6 16V24H10V16H6ZM22 16V24H26V16H22ZM38 16V24H42V16H38ZM8 34C8.56667 34 9.04167 33.8083 9.425 33.425C9.80833 33.0417 10 32.5667 10 32V28H6V32C6 32.5667 6.19167 33.0417 6.575 33.425C6.95833 33.8083 7.43333 34 8 34ZM24 34C24.5667 34 25.0417 33.8083 25.425 33.425C25.8083 33.0417 26 32.5667 26 32V28H22V32C22 32.5667 22.1917 33.0417 22.575 33.425C22.9583 33.8083 23.4333 34 24 34ZM40 34C40.5667 34 41.0417 33.8083 41.425 33.425C41.8083 33.0417 42 32.5667 42 32V28H38V32C38 32.5667 38.1917 33.0417 38.575 33.425C38.9583 33.8083 39.4333 34 40 34Z" fill="#16A1E1"/>
</svg>
