<svg width="48" height="48" viewBox="0 0 48 48" fill="none" xmlns="http://www.w3.org/2000/svg">
<path d="M24 8C33.9411 8 42 16.0589 42 26C42 30.97 39.9837 35.4734 36.7285 38.7285C35.9477 39.5093 34.6815 39.5088 33.9004 38.7285C33.1194 37.9475 33.1193 36.6814 33.9004 35.9004C35.4443 34.3565 36.6267 32.4554 37.3164 30.332L34.6934 29.7266C33.6176 29.478 32.9454 28.404 33.1934 27.3281C33.4418 26.2523 34.516 25.5804 35.5918 25.8281L37.9941 26.3818C37.9975 26.255 38 26.1277 38 26C38 23.2018 37.1778 20.5962 35.7637 18.4092L34.2002 19.6758C33.3418 20.3702 32.0826 20.2371 31.3877 19.3789C30.6934 18.5205 30.8264 17.2613 31.6846 16.5664L33.1348 15.3906C31.1599 13.6887 28.7046 12.5295 26 12.1426V13.8096C25.9997 14.9139 25.1044 15.8096 24 15.8096C22.8956 15.8096 22.0003 14.9139 22 13.8096V12.1426C19.2949 12.5295 16.8393 13.6892 14.8643 15.3916L16.3164 16.5674C17.1746 17.2625 17.3064 18.5216 16.6113 19.3799C15.9163 20.2381 14.6572 20.3716 13.7988 19.6768L12.2344 18.4092C10.8206 20.596 10 23.2022 10 26C10 26.1277 10.0015 26.255 10.0049 26.3818L12.4072 25.8281C13.4833 25.5798 14.5571 26.2521 14.8057 27.3281C15.0537 28.404 14.3834 29.4779 13.3076 29.7266L10.6826 30.332C11.3723 32.4556 12.5557 34.3565 14.0996 35.9004C14.8806 36.6814 14.8806 37.9475 14.0996 38.7285C13.3185 39.5088 12.0523 39.5093 11.2715 38.7285C8.01631 35.4734 6 30.97 6 26C6 16.0589 14.0589 8 24 8ZM28.7979 22.0215L30.6826 22.6914C30.6823 22.6924 30.6813 22.6954 30.6807 22.6973C30.6794 22.7009 30.6771 22.7065 30.6748 22.7129C30.6698 22.7268 30.6626 22.7475 30.6533 22.7734C30.6343 22.8265 30.6068 22.9058 30.5713 23.0039C30.5001 23.2004 30.397 23.4822 30.2705 23.8223C30.0176 24.502 29.6657 25.4244 29.2764 26.3887C28.8888 27.3484 28.4524 28.3754 28.0303 29.252C27.8199 29.6888 27.602 30.1116 27.3857 30.4805C27.1857 30.8215 26.9217 31.23 26.6064 31.5566C24.6699 33.5615 21.4749 33.6179 19.4697 31.6816C17.4643 29.7451 17.4082 26.5483 19.3447 24.543C19.6601 24.2166 20.0597 23.9403 20.3936 23.7285C20.7547 23.4995 21.1693 23.2665 21.5986 23.041C22.4599 22.5886 23.4714 22.1161 24.417 21.6953C25.3672 21.2725 26.2777 20.8897 26.9482 20.6133C27.2835 20.475 27.561 20.3631 27.7549 20.2852C27.8517 20.2462 27.9291 20.2142 27.9814 20.1934C28.0072 20.1831 28.0282 20.1754 28.042 20.1699C28.0484 20.1674 28.054 20.1655 28.0576 20.1641L28.0615 20.1621H28.0635L28.7979 22.0215ZM25.2178 25.7266C24.5902 26.016 23.9832 26.3072 23.46 26.582C23.0846 26.7792 22.7725 26.9556 22.5361 27.1055C22.3377 27.2313 22.2463 27.3042 22.2236 27.3223C21.8217 27.7384 21.8328 28.4028 22.249 28.8047C22.6652 29.206 23.3278 29.1934 23.7295 28.7773C23.746 28.7549 23.8148 28.6612 23.9346 28.457C24.0762 28.2155 24.2427 27.8979 24.4268 27.5156C24.6833 26.9828 24.9503 26.3643 25.2178 25.7266ZM28.0635 20.1602C28.7926 19.8727 29.6246 20.0375 30.1885 20.582C30.7521 21.1264 30.9442 21.9509 30.6826 22.6895L28.7979 22.0215L28.0635 20.1602Z" fill="#16A1E1"/>
</svg>
