<svg width="24" height="24" viewBox="0 0 24 24" fill="none" xmlns="http://www.w3.org/2000/svg">
<path d="M4.9 17.1C3.95 16.1 3.22917 14.9917 2.7375 13.775C2.24583 12.5584 2 11.3 2 10C2 8.70002 2.24583 7.44169 2.7375 6.22502C3.22917 5.00836 3.95 3.90002 4.9 2.90002L6.1 4.10002C5.3 4.90002 4.7 5.82086 4.3 6.86252C3.9 7.90419 3.7 8.95002 3.7 10C3.7 11.05 3.9 12.0959 4.3 13.1375C4.7 14.1792 5.3 15.1 6.1 15.9L4.9 17.1ZM7.3 14.7C6.65 14.05 6.15417 13.3167 5.8125 12.5C5.47083 11.6834 5.3 10.85 5.3 10C5.3 9.15002 5.47083 8.31669 5.8125 7.50002C6.15417 6.68336 6.65 5.95002 7.3 5.30002L8.5 6.50002C8 6.95002 7.625 7.48336 7.375 8.10002C7.125 8.71669 7 9.35002 7 10C7 10.6 7.125 11.2084 7.375 11.825C7.625 12.4417 8 13 8.5 13.5L7.3 14.7ZM7 22L10.375 11.875C10.1083 11.6417 9.89583 11.3667 9.7375 11.05C9.57917 10.7334 9.5 10.3834 9.5 10C9.5 9.30002 9.74167 8.70836 10.225 8.22502C10.7083 7.74169 11.3 7.50002 12 7.50002C12.7 7.50002 13.2917 7.74169 13.775 8.22502C14.2583 8.70836 14.5 9.30002 14.5 10C14.5 10.3834 14.4208 10.7334 14.2625 11.05C14.1042 11.3667 13.8917 11.6417 13.625 11.875L17 22H15L14.35 20H9.675L9 22H7ZM10.325 18H13.675L12 13L10.325 18ZM16.7 14.7L15.5 13.5C16 13.05 16.375 12.5167 16.625 11.9C16.875 11.2834 17 10.65 17 10C17 9.40002 16.875 8.79169 16.625 8.17502C16.375 7.55836 16 7.00002 15.5 6.50002L16.7 5.30002C17.35 5.95002 17.8333 6.68336 18.15 7.50002C18.4667 8.31669 18.65 9.15002 18.7 10C18.7 10.85 18.5292 11.6834 18.1875 12.5C17.8458 13.3167 17.35 14.05 16.7 14.7ZM19.1 17.1L17.9 15.9C18.7 15.1 19.3 14.1792 19.7 13.1375C20.1 12.0959 20.3 11.05 20.3 10C20.3 8.95002 20.1 7.90419 19.7 6.86252C19.3 5.82086 18.7 4.90002 17.9 4.10002L19.1 2.90002C20.05 3.90002 20.7708 5.00836 21.2625 6.22502C21.7542 7.44169 22 8.70002 22 10C22 11.3 21.7667 12.5584 21.3 13.775C20.8333 14.9917 20.1 16.1 19.1 17.1Z" fill="#2C2C2C"/>
</svg>
